<svg width="42" height="43" viewBox="0 0 42 43" fill="none" xmlns="http://www.w3.org/2000/svg">
<g clip-path="url(#clip0_302_875)">
<g clip-path="url(#clip1_302_875)">
<rect x="0.5" y="1" width="39" height="39" rx="19.5" fill="#7AA0D7" stroke="#7AA0D7"/>
<path d="M22.6666 7.16667H12C10.5333 7.16667 9.34665 8.36667 9.34665 9.83334L9.33331 31.1667C9.33331 32.6333 10.52 33.8333 11.9866 33.8333H28C29.4666 33.8333 30.6666 32.6333 30.6666 31.1667V15.1667L22.6666 7.16667ZM12 31.1667V9.83334H21.3333V16.5H28V31.1667H12Z" fill="white"/>
<path d="M13.7778 18.9445V29.8334H26.2222V18.9445H13.7778ZM16.5432 20.5001V22.0556H15.1605V20.5001H16.5432ZM15.1605 25.1667V23.6112H16.5432V25.1667H15.1605ZM15.1605 26.7223H16.5432V28.2779H15.1605V26.7223ZM24.8395 28.2779H17.9259V26.7223H24.8395V28.2779ZM24.8395 25.1667H17.9259V23.6112H24.8395V25.1667ZM24.8395 22.0556H17.9259V20.5001H24.8395V22.0556Z" fill="white"/>
</g>
</g>
<defs>
<clipPath id="clip0_302_875">
<rect y="0.5" width="42" height="42" rx="21" fill="white"/>
</clipPath>
<clipPath id="clip1_302_875">
<rect width="40" height="40" fill="white" transform="translate(0 0.5)"/>
</clipPath>
</defs>
</svg>
