<svg width="42" height="43" viewBox="0 0 42 43" fill="none" xmlns="http://www.w3.org/2000/svg">
<g clip-path="url(#clip0_302_1045)">
<rect x="1.5" y="2" width="39" height="39" rx="19.5" fill="#7AA0D7" stroke="#7AA0D7"/>
<path d="M23.6667 8.16666H13C11.5334 8.16666 10.3467 9.36666 10.3467 10.8333L10.3334 32.1667C10.3334 33.6333 11.52 34.8333 12.9867 34.8333H29C30.4667 34.8333 31.6667 33.6333 31.6667 32.1667V16.1667L23.6667 8.16666ZM13 32.1667V10.8333H22.3334V17.5H29V32.1667H13Z" fill="white"/>
<path d="M25.6667 18.389H16.3334C15.4778 18.389 14.7778 19.089 14.7778 19.9445V29.2779C14.7778 30.1334 15.4778 30.8334 16.3334 30.8334H25.6667C26.5223 30.8334 27.2223 30.1334 27.2223 29.2779V19.9445C27.2223 19.089 26.5223 18.389 25.6667 18.389ZM25.6667 29.2779H16.3334V19.9445H25.6667V29.2779ZM22.5556 26.1667V23.8334C22.5556 23.4056 22.2056 23.0556 21.7778 23.0556H20.2223V26.9445H21.7778C22.2056 26.9445 22.5556 26.5945 22.5556 26.1667ZM21.0001 23.8334H21.7778V26.1667H21.0001V23.8334ZM24.1112 25.389H24.8889V24.6112H24.1112V23.8334H24.8889V23.0556H23.3334V26.9445H24.1112V25.389ZM17.8889 25.389H18.6667C19.0945 25.389 19.4445 25.039 19.4445 24.6112V23.8334C19.4445 23.4056 19.0945 23.0556 18.6667 23.0556H17.1112V26.9445H17.8889V25.389ZM17.8889 23.8334H18.6667V24.6112H17.8889V23.8334Z" fill="white"/>
</g>
<defs>
<clipPath id="clip0_302_1045">
<rect width="40" height="40" fill="white" transform="translate(1 1.5)"/>
</clipPath>
</defs>
</svg>
