<svg width="42" height="43" viewBox="0 0 42 43" fill="none" xmlns="http://www.w3.org/2000/svg">
<g clip-path="url(#clip0_302_960)">
<g clip-path="url(#clip1_302_960)">
<rect x="0.5" y="1" width="39" height="39" rx="19.5" fill="#7AA0D7" stroke="#7AA0D7"/>
<path d="M22.6667 7.16667H12C10.5334 7.16667 9.34671 8.36667 9.34671 9.83333L9.33337 31.1667C9.33337 32.6333 10.52 33.8333 11.9867 33.8333H28C29.4667 33.8333 30.6667 32.6333 30.6667 31.1667V15.1667L22.6667 7.16667ZM12 31.1667V9.83333H21.3334V16.5H28V31.1667H12Z" fill="white"/>
<path d="M22.2193 22.0556L19.1082 26.7405L16.8889 23.6051L13.7778 28.2779H26.2223L22.2193 22.0556Z" fill="white"/>
</g>
</g>
<defs>
<clipPath id="clip0_302_960">
<rect y="0.5" width="42" height="42" rx="21" fill="white"/>
</clipPath>
<clipPath id="clip1_302_960">
<rect width="40" height="40" fill="white" transform="translate(0 0.5)"/>
</clipPath>
</defs>
</svg>
