<svg width="25" height="24" viewBox="0 0 25 24" fill="none" xmlns="http://www.w3.org/2000/svg">
<path d="M16.5151 14.2549H15.7022L15.414 13.9849C16.4225 12.8449 17.0297 11.3649 17.0297 9.75488C17.0297 6.16488 14.035 3.25488 10.3406 3.25488C6.64616 3.25488 3.65151 6.16488 3.65151 9.75488C3.65151 13.3449 6.64616 16.2549 10.3406 16.2549C11.9974 16.2549 13.5205 15.6649 14.6937 14.6849L14.9715 14.9649V15.7549L20.117 20.7449L21.6503 19.2549L16.5151 14.2549ZM10.3406 14.2549C7.77816 14.2549 5.70969 12.2449 5.70969 9.75488C5.70969 7.26488 7.77816 5.25488 10.3406 5.25488C12.903 5.25488 14.9715 7.26488 14.9715 9.75488C14.9715 12.2449 12.903 14.2549 10.3406 14.2549Z" fill="#00205C"/>
</svg>
